<?xml version="1.0" encoding="utf-8"?>
<!-- Generator: Adobe Illustrator 24.0.1, SVG Export Plug-In . SVG Version: 6.00 Build 0)  -->
<svg version="1.1" id="Layer_1" xmlns="http://www.w3.org/2000/svg" xmlns:xlink="http://www.w3.org/1999/xlink" x="0px" y="0px"
	 viewBox="0 0 262 84" style="enable-background:new 0 0 262 84;" xml:space="preserve">
<style type="text/css">
	.st0{fill:#FF0000;}
	.st1{fill:#FFFFFF;}
	.st2{fill:#3FA9F5;}
	.st3{fill:#39B54A;}
	.st4{fill:#FFFF00;}
</style>
<g>
	<polygon class="st0" points="64,23.6 64,55 63.9,55 49.4,66.8 34.9,55 35,55 35,23.6 49.5,11.8 	"/>
	<g>
		<circle class="st1" cx="41.5" cy="24.5" r="2.5"/>
		<circle class="st1" cx="45.5" cy="26.5" r="1.5"/>
	</g>
</g>
<g>
	<polygon class="st2" points="132.9,35.6 105.7,66.5 78.4,35.6 86,27 125.4,27 	"/>
	<g>
		<circle class="st1" cx="88.5" cy="33.5" r="2.5"/>
		<circle class="st1" cx="92.5" cy="35.5" r="1.5"/>
	</g>
</g>
<g>
	<polygon class="st3" points="217.2,21.1 204.2,26.5 197.2,40.3 199.6,55.9 210.3,66.1 224.2,66.1 234.8,55.9 237.2,40.3 
		230.3,26.5 	"/>
	<g>
		<circle class="st1" cx="206.5" cy="31.5" r="2.5"/>
		<circle class="st1" cx="210.5" cy="33.5" r="1.5"/>
	</g>
</g>
<g>
	<polygon class="st4" points="157.8,66.3 147.4,57.4 147.4,27.6 157.8,18.7 172.4,18.7 182.8,27.6 182.8,57.4 172.4,66.3 	"/>
	<g>
		<circle class="st1" cx="152.3" cy="55.5" r="1.5"/>
		<path class="st1" d="M152.3,53L152.3,53c-0.6,0-1-0.5-1-1V28c0-0.5,0.4-1,1-1l0,0c0.6,0,1,0.5,1,1v24
			C153.3,52.5,152.8,53,152.3,53z"/>
	</g>
</g>
</svg>
